<svg xmlns="http://www.w3.org/2000/svg" version="1.1" xmlns:xlink="http://www.w3.org/1999/xlink" width="76" height="71"><svg width="76" height="71" viewBox="0 0 76 71" fill="none" xmlns="http://www.w3.org/2000/svg">
<path d="M57.6019 17.2175C58.4391 17.2175 59.1178 16.5817 59.1178 15.7975C59.1178 15.0133 58.4391 14.3775 57.6019 14.3775C56.7648 14.3775 56.0861 15.0133 56.0861 15.7975C56.0861 16.5817 56.7648 17.2175 57.6019 17.2175Z" fill="black"></path>
<path d="M75.7921 0.887501L66.5076 8.25375L75.7921 4.4375V0.887501Z" fill="black"></path>
<path d="M69.1603 0L65.5602 7.54375L72.9499 0H69.1603Z" fill="black"></path>
<path d="M71.434 8.875L61.8653 11.8037C63.0022 12.8687 63.6654 14.3775 63.6654 15.7975V35.5C63.6654 41.7125 61.1074 47.8363 56.0862 52.54C51.0649 57.2438 44.4331 59.64 37.896 59.64C32.2116 59.64 26.622 57.865 21.9797 54.4925L24.1587 52.4513C33.0643 58.8413 45.8542 58.22 54.0019 50.5875C58.4547 46.4163 60.6337 41.0025 60.6337 35.5C60.6337 34.7012 59.9705 34.08 59.1178 34.08C58.2651 34.08 57.602 34.7012 57.602 35.5C57.602 40.2038 55.7072 44.9075 51.8229 48.5463C44.8121 55.1138 34.0117 55.6463 26.243 50.41L48.6964 29.3762C52.2018 26.0925 52.2018 20.6788 48.6964 17.3063C48.5069 17.1288 48.2227 16.9512 48.0333 16.685L53.3387 11.715C54.4756 10.65 56.0861 10.0287 57.602 10.0287C59.1178 10.0287 60.7284 10.5612 61.8653 11.715L64.897 2.92875L59.9705 7.54375C59.2126 7.36625 58.4546 7.2775 57.602 7.2775C55.2335 7.2775 52.9597 8.07625 51.1597 9.7625L42.8225 17.5725C43.2962 17.6613 43.8647 17.8387 44.3384 18.0162C45.191 18.2825 45.949 18.7262 46.6122 19.3475C48.9807 21.5662 48.9807 25.205 46.6122 27.4237L0 71H4.26331L19.8007 56.445C24.064 59.64 29.2747 61.77 34.9591 62.3025L31.1695 71H34.4854L38.275 62.48C39.4119 62.48 40.5488 62.3912 41.6857 62.3025L37.7066 71H41.0225L45.1911 61.5925C57.602 58.575 66.7918 48.0138 66.7918 35.4113V15.7975C66.7918 15.0875 66.6971 14.2887 66.5076 13.5787L67.3602 12.78L71.434 8.875Z" fill="black"></path>
</svg><style>@media (prefers-color-scheme: light) { :root { filter: none; } }
@media (prefers-color-scheme: dark) { :root { filter: invert(100%); } }
</style></svg>